<svg width="140" height="29" viewBox="0 0 140 29" fill="none" xmlns="http://www.w3.org/2000/svg">
<path d="M28.4805 1.67188C28.1419 1.6849 27.7318 1.76302 27.25 1.90625C26.7682 2.03646 26.3711 2.19922 26.0586 2.39453C25.6159 2.66797 25.2578 3.01953 24.9844 3.44922C24.724 3.87891 24.4635 4.38672 24.2031 4.97266C23.3307 7.04297 22.0221 10.2721 20.2773 14.6602C18.5326 19.0352 16.7357 23.599 14.8867 28.3516H13.2656C11.3906 23.3125 9.58073 18.4557 7.83594 13.7812C6.09115 9.10677 4.90625 5.94922 4.28125 4.30859C4.125 3.90495 3.91667 3.55339 3.65625 3.25391C3.39583 2.94141 3.05078 2.64844 2.62109 2.375C2.26953 2.15365 1.87891 1.99089 1.44922 1.88672C1.01953 1.76953 0.622396 1.69792 0.257812 1.67188V0.285156H11.7227V1.67188C10.7461 1.72396 9.91927 1.82161 9.24219 1.96484C8.57812 2.10807 8.24609 2.36198 8.24609 2.72656C8.24609 2.86979 8.27214 3.03906 8.32422 3.23438C8.3763 3.42969 8.42188 3.58594 8.46094 3.70312C8.94271 4.97917 9.72396 7.0625 10.8047 9.95312C11.8854 12.8307 13.4219 16.9323 15.4141 22.2578C16.4036 19.849 17.543 17.0039 18.832 13.7227C20.1211 10.4414 20.987 8.1888 21.4297 6.96484C21.8594 5.77995 22.1068 4.95964 22.1719 4.50391C22.25 4.04818 22.2891 3.67708 22.2891 3.39062C22.2891 3.09115 22.1523 2.84375 21.8789 2.64844C21.6185 2.4401 21.2669 2.26432 20.8242 2.12109C20.3945 1.99089 19.9583 1.89323 19.5156 1.82812C19.0729 1.76302 18.6237 1.71094 18.168 1.67188V0.285156H28.4805V1.67188ZM52.8945 19.8359L52.3672 28H29.3594V26.6133C29.75 26.5872 30.2708 26.5352 30.9219 26.457C31.5729 26.3659 31.9961 26.2747 32.1914 26.1836C32.6081 25.9883 32.8945 25.7344 33.0508 25.4219C33.2201 25.1094 33.3047 24.7122 33.3047 24.2305V4.30859C33.3047 3.87891 33.2331 3.5013 33.0898 3.17578C32.9466 2.83724 32.6471 2.5638 32.1914 2.35547C31.8398 2.1862 31.3646 2.03646 30.7656 1.90625C30.1797 1.77604 29.7109 1.69792 29.3594 1.67188V0.285156H50.8047V6.96484H49.3398C49.0794 5.97526 48.513 4.92708 47.6406 3.82031C46.7812 2.70052 45.9609 2.08854 45.1797 1.98438C44.776 1.93229 44.2943 1.89323 43.7344 1.86719C43.1745 1.84115 42.5365 1.82812 41.8203 1.82812H37.4648V12.8438H40.5898C41.5924 12.8438 42.3216 12.7526 42.7773 12.5703C43.2461 12.375 43.6562 12.056 44.0078 11.6133C44.2943 11.2357 44.5352 10.7344 44.7305 10.1094C44.9388 9.47135 45.0755 8.8724 45.1406 8.3125H46.6055V19.1523H45.1406C45.0885 18.5273 44.9453 17.8698 44.7109 17.1797C44.4896 16.4766 44.2552 15.9688 44.0078 15.6562C43.6042 15.1484 43.1419 14.8164 42.6211 14.6602C42.1133 14.5039 41.4362 14.4258 40.5898 14.4258H37.4648V22.7461C37.4648 23.5794 37.5234 24.237 37.6406 24.7188C37.7578 25.2005 37.9857 25.5651 38.3242 25.8125C38.6628 26.0599 39.125 26.2227 39.7109 26.3008C40.2969 26.3659 41.1302 26.3984 42.2109 26.3984C42.6406 26.3984 43.207 26.3984 43.9102 26.3984C44.6133 26.3984 45.2057 26.3724 45.6875 26.3203C46.1823 26.2682 46.6901 26.1771 47.2109 26.0469C47.7448 25.9036 48.1224 25.7148 48.3438 25.4805C48.9427 24.8555 49.5677 23.9115 50.2188 22.6484C50.8828 21.3724 51.306 20.4349 51.4883 19.8359H52.8945ZM84.1641 1.67188C83.7995 1.6849 83.2396 1.78906 82.4844 1.98438C81.7292 2.17969 81.1888 2.38151 80.8633 2.58984C80.3945 2.91536 80.0755 3.54036 79.9062 4.46484C79.75 5.38932 79.6719 6.5612 79.6719 7.98047V28.2734H77.9727L61.1758 5.59766V19.8945C61.1758 21.4961 61.2734 22.7266 61.4688 23.5859C61.6771 24.4453 61.9896 25.0573 62.4062 25.4219C62.7057 25.7083 63.3242 25.9753 64.2617 26.2227C65.1992 26.4701 65.8177 26.6003 66.1172 26.6133V28H54.75V26.6133C55.1016 26.5872 55.694 26.4635 56.5273 26.2422C57.3607 26.0078 57.8815 25.7995 58.0898 25.6172C58.5456 25.2526 58.8581 24.6992 59.0273 23.957C59.1966 23.2018 59.2812 21.9193 59.2812 20.1094V6.45703C59.2812 5.85807 59.1771 5.25911 58.9688 4.66016C58.7604 4.0612 58.4805 3.59896 58.1289 3.27344C57.6602 2.84375 57.0221 2.47917 56.2148 2.17969C55.4206 1.86719 54.776 1.69792 54.2812 1.67188V0.285156H62.1914L77.7773 21.418V8.23438C77.7773 6.61979 77.6732 5.38281 77.4648 4.52344C77.2565 3.65104 76.957 3.07161 76.5664 2.78516C76.2018 2.53776 75.6029 2.29688 74.7695 2.0625C73.9492 1.82812 73.3242 1.69792 72.8945 1.67188V0.285156H84.1641V1.67188ZM109.73 19.8359L109.203 28H86.1953V26.6133C86.5859 26.5872 87.1068 26.5352 87.7578 26.457C88.4089 26.3659 88.832 26.2747 89.0273 26.1836C89.444 25.9883 89.7305 25.7344 89.8867 25.4219C90.056 25.1094 90.1406 24.7122 90.1406 24.2305V4.30859C90.1406 3.87891 90.069 3.5013 89.9258 3.17578C89.7826 2.83724 89.4831 2.5638 89.0273 2.35547C88.6758 2.1862 88.2005 2.03646 87.6016 1.90625C87.0156 1.77604 86.5469 1.69792 86.1953 1.67188V0.285156H107.641V6.96484H106.176C105.915 5.97526 105.349 4.92708 104.477 3.82031C103.617 2.70052 102.797 2.08854 102.016 1.98438C101.612 1.93229 101.13 1.89323 100.57 1.86719C100.01 1.84115 99.3724 1.82812 98.6562 1.82812H94.3008V12.8438H97.4258C98.4284 12.8438 99.1576 12.7526 99.6133 12.5703C100.082 12.375 100.492 12.056 100.844 11.6133C101.13 11.2357 101.371 10.7344 101.566 10.1094C101.775 9.47135 101.911 8.8724 101.977 8.3125H103.441V19.1523H101.977C101.924 18.5273 101.781 17.8698 101.547 17.1797C101.326 16.4766 101.091 15.9688 100.844 15.6562C100.44 15.1484 99.9779 14.8164 99.457 14.6602C98.9492 14.5039 98.2721 14.4258 97.4258 14.4258H94.3008V22.7461C94.3008 23.5794 94.3594 24.237 94.4766 24.7188C94.5938 25.2005 94.8216 25.5651 95.1602 25.8125C95.4987 26.0599 95.9609 26.2227 96.5469 26.3008C97.1328 26.3659 97.9661 26.3984 99.0469 26.3984C99.4766 26.3984 100.043 26.3984 100.746 26.3984C101.449 26.3984 102.042 26.3724 102.523 26.3203C103.018 26.2682 103.526 26.1771 104.047 26.0469C104.581 25.9036 104.958 25.7148 105.18 25.4805C105.779 24.8555 106.404 23.9115 107.055 22.6484C107.719 21.3724 108.142 20.4349 108.324 19.8359H109.73ZM139.105 14.3086C139.105 16.6654 138.663 18.7096 137.777 20.4414C136.892 22.1732 135.74 23.5924 134.32 24.6992C132.888 25.806 131.28 26.6328 129.496 27.1797C127.712 27.7266 125.87 28 123.969 28H112.484V26.6133C112.862 26.6133 113.35 26.5807 113.949 26.5156C114.561 26.4375 114.965 26.3529 115.16 26.2617C115.551 26.0924 115.831 25.8451 116 25.5195C116.182 25.181 116.273 24.7773 116.273 24.3086V4.30859C116.273 3.86589 116.195 3.46875 116.039 3.11719C115.896 2.76562 115.603 2.48568 115.16 2.27734C114.757 2.08203 114.32 1.9388 113.852 1.84766C113.383 1.75651 112.979 1.69792 112.641 1.67188V0.285156H124.75C126.417 0.285156 128.057 0.545573 129.672 1.06641C131.286 1.57422 132.693 2.26432 133.891 3.13672C135.518 4.29557 136.794 5.8125 137.719 7.6875C138.643 9.5625 139.105 11.7695 139.105 14.3086ZM134.32 14.2891C134.32 12.4271 134.073 10.7474 133.578 9.25C133.083 7.73958 132.361 6.42448 131.41 5.30469C130.512 4.23698 129.405 3.39714 128.09 2.78516C126.788 2.17318 125.336 1.86719 123.734 1.86719C123.201 1.86719 122.595 1.88021 121.918 1.90625C121.254 1.91927 120.759 1.93229 120.434 1.94531V23.2539C120.434 24.4388 120.779 25.2591 121.469 25.7148C122.159 26.1706 123.22 26.3984 124.652 26.3984C126.306 26.3984 127.751 26.1055 128.988 25.5195C130.225 24.9336 131.228 24.1198 131.996 23.0781C132.803 21.9844 133.389 20.7214 133.754 19.2891C134.132 17.8438 134.32 16.1771 134.32 14.2891Z" fill="white"/>
</svg>
