<?xml version="1.0" standalone="no"?>
<!DOCTYPE svg PUBLIC "-//W3C//DTD SVG 20010904//EN"
 "http://www.w3.org/TR/2001/REC-SVG-20010904/DTD/svg10.dtd">
<svg version="1.0" xmlns="http://www.w3.org/2000/svg"
 width="300.000000pt" height="300.000000pt" viewBox="0 0 300.000000 300.000000"
 preserveAspectRatio="xMidYMid meet">
<metadata>
Created by potrace 1.11, written by Peter Selinger 2001-2013
</metadata>
<g transform="translate(0.000000,300.000000) scale(0.100000,-0.100000)"
fill="#000000" stroke="none">
<path d="M705 2590 c-237 -29 -378 -152 -430 -375 -26 -112 -34 -292 -34 -720
0 -570 13 -711 79 -851 59 -124 175 -203 350 -240 76 -16 161 -18 817 -22 823
-4 844 -2 980 62 86 41 193 141 233 217 l24 47 -61 68 c-104 117 -215 220
-220 206 -14 -36 -74 -98 -123 -126 l-55 -31 -649 -3 c-406 -2 -680 1 -733 7
-101 12 -144 36 -176 95 -22 41 -22 43 -22 566 0 493 1 527 19 560 30 56 56
79 110 95 75 23 1393 22 1457 0 58 -21 105 -59 138 -111 l28 -43 89 92 c49 51
111 115 138 144 l48 51 -27 50 c-58 106 -150 185 -280 238 l-70 29 -785 1
c-432 1 -812 -2 -845 -6z"/>
</g>
</svg>
