<svg width="227" height="227" viewBox="0 0 227 227" fill="none" xmlns="http://www.w3.org/2000/svg">
<path d="M103.453 214.827L107.908 215.161L109.117 212.461L110.563 212.57L105.703 222.899L104.476 222.807L101.207 211.867L102.646 211.975L103.453 214.827ZM107.398 216.284L103.782 216.012L105.22 221.122L107.398 216.284Z" fill="white"/>
<path d="M86.435 215.927L87.5503 216.175L88.5915 211.5C88.6595 211.195 88.6466 210.949 88.5529 210.763C88.4582 210.582 88.256 210.457 87.9462 210.388C87.7174 210.337 87.5037 210.319 87.3051 210.335L87.5384 209.254C87.8921 209.238 88.243 209.269 88.5909 209.346C89.7777 209.61 90.215 210.443 89.903 211.844L88.8728 216.47L91.7396 217.108L93.2187 210.467L94.5413 210.761L93.0622 217.403L94.2704 217.672L94.0268 218.766L86.1914 217.021L86.435 215.927Z" fill="white"/>
<path d="M80.6018 211.314C80.3296 212.041 79.943 212.641 79.442 213.116C78.9365 213.589 78.3708 213.888 77.7451 214.013C77.1148 214.137 76.4727 214.077 75.8188 213.832C74.8083 213.453 74.123 212.798 73.7631 211.865C73.3986 210.931 73.4338 209.883 73.8687 208.722L73.9021 208.633C74.1726 207.91 74.5553 207.313 75.0499 206.841C75.5383 206.373 76.1008 206.075 76.7374 205.948C77.3694 205.82 78.0192 205.881 78.6868 206.131C79.6928 206.507 80.3781 207.163 80.7426 208.097C81.1025 209.03 81.0667 210.072 80.6352 211.224L80.6018 211.314ZM79.3825 210.685C79.6907 209.862 79.7484 209.13 79.5555 208.489C79.358 207.847 78.9392 207.406 78.299 207.166C77.6542 206.925 77.0479 206.985 76.48 207.346C75.9104 207.711 75.4553 208.349 75.1145 209.259C74.8098 210.073 74.7575 210.804 74.9579 211.453C75.1519 212.104 75.569 212.549 76.2092 212.789C76.8357 213.024 77.4343 212.964 78.005 212.609C78.5758 212.255 79.0349 211.613 79.3825 210.685ZM74.7061 217.263L73.5126 216.816L75.1738 214.803L75.942 215.09L74.7061 217.263Z" fill="white"/>
<path d="M52.251 200.096L54.521 201.59L57.1902 197.533C57.5471 196.991 57.5115 196.579 57.0832 196.297C56.9078 196.182 56.6852 196.111 56.4156 196.086L56.682 195.121C57.1315 195.113 57.5725 195.251 58.0049 195.536C58.5148 195.871 58.7921 196.267 58.8368 196.723C58.8748 197.181 58.6999 197.708 58.3122 198.307L55.6591 202.339L57.7823 203.736L57.1784 204.653L51.6471 201.014L52.251 200.096Z" fill="white"/>
<path d="M48.3335 193.682C47.8238 194.267 47.2513 194.695 46.6158 194.964C45.9767 195.23 45.3421 195.312 44.712 195.21C44.0783 195.105 43.4981 194.824 42.9714 194.365C42.1574 193.657 41.7451 192.803 41.7346 191.803C41.7205 190.801 42.1205 189.831 42.9347 188.896L42.9972 188.824C43.5037 188.242 44.0712 187.817 44.6998 187.548C45.3214 187.28 45.9526 187.198 46.5932 187.303C47.2301 187.404 47.8174 187.689 48.3552 188.157C49.1655 188.862 49.5778 189.716 49.592 190.718C49.6025 191.718 49.2038 192.682 48.396 193.61L48.3335 193.682ZM47.4117 192.666C47.9886 192.003 48.299 191.338 48.3427 190.67C48.3827 189.999 48.1448 189.44 47.6292 188.991C47.1098 188.539 46.521 188.382 45.8627 188.522C45.2011 188.664 44.5514 189.102 43.9135 189.835C43.3429 190.491 43.0379 191.157 42.9984 191.835C42.952 192.513 43.1866 193.077 43.7023 193.525C44.2069 193.964 44.7886 194.118 45.4474 193.986C46.1062 193.854 46.7609 193.414 47.4117 192.666Z" fill="white"/>
<path d="M30.8493 168.68L34.9434 174.343L34.154 174.913L28.6673 174.325C27.8443 174.245 27.2165 174.235 26.7837 174.295C26.3442 174.354 25.9562 174.505 25.6199 174.748C25.1688 175.074 24.8975 175.478 24.8061 175.96C24.7146 176.442 24.8334 176.91 25.1624 177.365C25.5572 177.911 26.0211 178.224 26.554 178.302C27.0801 178.38 27.6201 178.219 28.174 177.818L28.968 178.916C28.1726 179.491 27.3451 179.701 26.4854 179.545C25.6228 179.386 24.8811 178.876 24.2603 178.018C23.6795 177.214 23.432 176.426 23.5178 175.653C23.5996 174.883 23.9907 174.245 24.6911 173.739C25.5418 173.123 26.9467 172.933 28.9058 173.168L33.0901 173.667L29.9531 169.328L30.8493 168.68Z" fill="white"/>
<path d="M20.0827 159.112C21.4853 158.37 22.6543 158.058 23.5897 158.176C24.5251 158.294 25.2624 158.862 25.8015 159.881C26.3338 160.886 26.3955 161.806 25.9868 162.642C25.5738 163.479 24.7094 164.257 23.3937 164.976L21.7948 165.822C20.4095 166.555 19.2535 166.861 18.3267 166.738C17.3999 166.615 16.6658 166.043 16.1244 165.02C15.5876 164.006 15.5182 163.087 15.9162 162.263C16.31 161.441 17.181 160.665 18.5292 159.935L20.0827 159.112ZM19.079 161.177C18.0648 161.714 17.4023 162.247 17.0913 162.776C16.776 163.307 16.7817 163.882 17.1083 164.499C17.4327 165.112 17.9001 165.436 18.5103 165.472C19.1205 165.508 19.907 165.277 20.8696 164.779L22.7856 163.764C23.8041 163.225 24.4795 162.68 24.8118 162.128C25.1375 161.575 25.1416 160.998 24.824 160.398C24.5111 159.807 24.0505 159.49 23.4423 159.447C22.8318 159.4 22.0311 159.631 21.0403 160.139L19.079 161.177Z" fill="white"/>
<path d="M14.6267 145.75C16.1187 145.209 17.3196 145.062 18.2296 145.309C19.1396 145.556 19.7909 146.221 20.1835 147.304C20.5712 148.374 20.5047 149.294 19.9841 150.064C19.4588 150.836 18.4949 151.487 17.0922 152.016L15.3914 152.632C13.9178 153.167 12.7306 153.309 11.8298 153.059C10.929 152.808 10.2815 152.139 9.88717 151.052C9.49621 149.973 9.55498 149.053 10.0635 148.292C10.5674 147.533 11.5376 146.885 12.9741 146.349L14.6267 145.75ZM13.3462 147.656C12.2674 148.046 11.5373 148.482 11.1559 148.963C10.77 149.446 10.6959 150.016 10.9338 150.672C11.1701 151.324 11.5879 151.71 12.1872 151.831C12.7865 151.951 13.5974 151.831 14.6199 151.471L16.6581 150.732C17.7415 150.339 18.486 149.893 18.8916 149.393C19.291 148.89 19.375 148.319 19.1438 147.681C18.9158 147.052 18.5037 146.674 17.9073 146.548C17.3092 146.417 16.4843 146.534 15.4327 146.899L13.3462 147.656Z" fill="white"/>
<path d="M7.86211 132.666C8.38281 132.556 8.8755 132.596 9.34018 132.787C9.80384 132.974 10.1999 133.277 10.5282 133.696C10.6471 133.102 10.8976 132.6 11.28 132.19C11.6613 131.775 12.1362 131.507 12.7046 131.387C13.6075 131.196 14.3911 131.349 15.0556 131.848C15.719 132.341 16.1558 133.085 16.3661 134.078C16.5783 135.081 16.4812 135.943 16.0745 136.663C15.6621 137.379 15.0068 137.832 14.1087 138.022C13.545 138.141 13.0039 138.096 12.4854 137.886C11.9659 137.672 11.5315 137.317 11.1822 136.822C11.0509 137.334 10.8106 137.767 10.4611 138.12C10.1117 138.474 9.67902 138.705 9.1631 138.814C8.28412 139 7.52703 138.866 6.89183 138.411C6.25663 137.957 5.84148 137.268 5.64638 136.347C5.45229 135.429 5.55357 134.634 5.95021 133.961C6.34583 133.284 6.98314 132.852 7.86211 132.666ZM12.9565 132.718C12.3737 132.842 11.9378 133.129 11.6488 133.579C11.3588 134.025 11.277 134.546 11.4034 135.143C11.5297 135.74 11.8128 136.182 12.2527 136.468C12.6916 136.75 13.2072 136.828 13.7996 136.703C14.3919 136.577 14.8208 136.304 15.0861 135.884C15.3505 135.459 15.4165 134.933 15.2841 134.307C15.1526 133.686 14.88 133.235 14.466 132.953C14.0472 132.672 13.5441 132.594 12.9565 132.718ZM6.73554 136.116C6.84573 136.637 7.09761 137.025 7.49119 137.281C7.87898 137.534 8.34994 137.601 8.90408 137.484C9.43433 137.372 9.8309 137.123 10.0938 136.738C10.3509 136.349 10.4234 135.89 10.3112 135.359C10.199 134.829 9.94707 134.441 9.55552 134.194C9.15817 133.944 8.69438 133.875 8.16412 133.987C7.63387 134.099 7.23642 134.356 6.97178 134.756C6.70714 135.156 6.62839 135.61 6.73554 136.116Z" fill="white"/>
<path d="M8.35084 114.735C7.92604 114.733 7.57762 114.596 7.30558 114.326C7.03356 114.052 6.89872 113.69 6.90105 113.24C6.90336 112.796 7.03951 112.435 7.30951 112.158C7.57462 111.882 7.93422 111.744 8.38832 111.747L8.65931 111.748C9.08411 111.75 9.43009 111.886 9.69725 112.156C9.9644 112.426 10.0968 112.791 10.0944 113.25C10.0921 113.704 9.95589 114.067 9.68592 114.339C9.41109 114.606 9.05884 114.738 8.62915 114.736L8.35084 114.735Z" fill="white"/>
<path d="M12.1706 87.9771L11.1669 92.4884L14.856 93.3091L16.0219 88.0686L17.1444 88.3183L15.673 94.9315L5.26344 92.6158L6.71888 86.0741L7.8485 86.3253L6.69846 91.4944L10.0444 92.2387L11.0481 87.7274L12.1706 87.9771Z" fill="white"/>
<path d="M12.1767 77.6348L16.5189 79.2597C17.266 79.5341 17.8616 79.6214 18.3055 79.5217C18.7512 79.4173 19.0733 79.0999 19.2718 78.5695C19.6124 77.6594 19.4881 76.9326 18.8991 76.3889L13.4114 74.3353L13.8888 73.0594L21.311 75.8369L20.8823 76.9825L20.0703 76.749C20.5286 77.4053 20.6122 78.1222 20.3213 78.8996C20.0697 79.5719 19.7077 80.0308 19.2353 80.2763L22.4525 81.4802L21.9776 82.7492L11.7018 78.9039L12.1767 77.6348Z" fill="white"/>
<path d="M21.8724 59.3612L21.3274 60.3655L25.5374 62.6503C25.812 62.7994 26.0516 62.8544 26.2561 62.8154C26.4563 62.774 26.6321 62.6139 26.7835 62.3349C26.8953 62.129 26.9709 61.9283 27.0102 61.733L27.9857 62.2541C27.9042 62.5987 27.7785 62.9277 27.6085 63.241C27.0285 64.3096 26.1077 64.5015 24.846 63.8167L20.6811 61.5564L19.2801 64.1377L25.2603 67.3833L24.614 68.5742L18.6338 65.3286L18.0433 66.4165L17.0584 65.882L20.8875 58.8267L21.8724 59.3612Z" fill="white"/>
<path d="M30.2133 54.9453C30.5156 55.1688 30.869 55.2083 31.2732 55.0638C31.6804 54.9154 32.0551 54.6095 32.3976 54.1461C32.7255 53.7024 32.8931 53.2495 32.9006 52.7875C32.911 52.3216 32.7571 51.9711 32.439 51.736L33.2443 50.6463C33.8529 51.0961 34.1542 51.7073 34.1479 52.4798C34.1407 53.2455 33.8498 54.0172 33.2752 54.7947C32.6832 55.5958 32.0346 56.1122 31.3292 56.3437C30.6199 56.5724 29.9766 56.4734 29.3993 56.0469C28.6689 55.5071 28.4716 54.7389 28.8073 53.7424C28.4105 53.9835 28.0213 54.1117 27.6396 54.1271C27.2578 54.1425 26.9237 54.0443 26.637 53.8325C26.0558 53.403 25.7691 52.842 25.7769 52.1495C25.7876 51.4531 26.086 50.7083 26.6721 49.9151C27.2119 49.1846 27.8384 48.7065 28.5516 48.4808C29.2638 48.2482 29.8988 48.3379 30.4564 48.75L29.6511 49.8397C29.3762 49.6366 29.0362 49.6038 28.6309 49.7415C28.2246 49.8723 27.8662 50.1478 27.5557 50.568C27.2307 51.0078 27.0599 51.428 27.0432 51.8285C27.0255 52.2222 27.1619 52.5264 27.4525 52.7412C28.0808 53.2055 28.749 52.9586 29.457 52.0004L30.3101 50.8458L31.1819 51.4901L30.2069 52.8095C29.5514 53.7459 29.5536 54.4578 30.2133 54.9453Z" fill="white"/>
<path d="M35.4427 39.6183L39.7551 43.6818C39.979 43.8928 40.193 44.0038 40.3971 44.0151C40.6046 44.0227 40.8155 43.9128 41.0298 43.6854C41.1905 43.5148 41.3148 43.3401 41.4028 43.1613L42.2127 43.9145C42.0458 44.2268 41.8402 44.5128 41.5957 44.7722C40.762 45.6571 39.8227 45.6073 38.7779 44.6228L34.5135 40.6044L35.4427 39.6183Z" fill="white"/>
<path d="M44.3252 31.062C45.101 30.4141 45.9381 30.1635 46.8367 30.31C47.7353 30.4566 48.6027 30.9886 49.4389 31.9061L49.7544 32.2724C50.5056 33.1718 50.8904 34.0592 50.9089 34.9344C50.9273 35.8096 50.5787 36.5461 49.8629 37.144C49.132 37.7543 48.359 38.0055 47.5436 37.8976L49.985 40.8208L48.9394 41.6941L44.2632 36.0951C43.7686 35.5029 43.4416 34.8981 43.2821 34.2806C43.1264 33.66 43.1395 33.0701 43.3215 32.511C43.5072 31.9488 43.8418 31.4658 44.3252 31.062ZM46.7267 36.9195C47.4978 37.2106 48.2039 37.0886 48.8447 36.5533C49.3507 36.1308 49.5924 35.6204 49.5698 35.0221C49.5442 34.4201 49.2262 33.7537 48.6158 33.0229C47.9742 32.2547 47.3413 31.7749 46.7171 31.5836C46.0967 31.3893 45.5373 31.5002 45.0388 31.9165C44.6004 32.2827 44.4152 32.7808 44.4834 33.4109C44.5516 34.0411 44.8502 34.6728 45.3792 35.3061L46.7267 36.9195Z" fill="white"/>
<path d="M55.0549 23.3269L58.285 28.2944C58.4526 28.5523 58.6343 28.7108 58.83 28.7699C59.0298 28.8264 59.2607 28.7694 59.5227 28.5991C59.7192 28.4713 59.8813 28.331 60.009 28.1781L60.618 29.1012C60.3821 29.3653 60.1147 29.5945 59.8158 29.7889C58.7966 30.4516 57.8956 30.1813 57.1131 28.9778L53.9189 24.0656L55.0549 23.3269ZM52.4743 20.7153L53.5427 20.0206L54.176 22.553L53.4883 23.0002L52.4743 20.7153Z" fill="white"/>
<path d="M68.4934 15.9042L71.0706 21.1419C71.3811 21.7509 71.7073 21.9714 72.049 21.8033C72.1322 21.7623 72.2013 21.7147 72.2563 21.6605L72.8504 22.4864C72.7134 22.7389 72.4828 22.9448 72.1586 23.1043C71.5146 23.4212 70.9315 23.2592 70.4093 22.6182C70.2962 23.5718 69.7818 24.2738 68.8661 24.7243C68.025 25.1382 67.2026 25.1592 66.3992 24.7872C65.5937 24.4108 64.9279 23.6881 64.4019 22.6191L64.3534 22.5205C63.7842 21.3639 63.5769 20.3177 63.7314 19.3818C63.8837 18.4416 64.3892 17.7603 65.2479 17.3378C66.1373 16.9002 66.9899 16.9187 67.8058 17.3935L67.4616 16.4119L68.4934 15.9042ZM65.6371 22.0603C66.0143 22.827 66.4685 23.3464 66.9996 23.6184C67.5285 23.886 68.0887 23.8743 68.6802 23.5833C69.4381 23.2103 69.7962 22.528 69.7545 21.5364L68.3123 18.6054C67.5347 17.9649 66.7778 17.8258 66.0418 18.1879C65.4547 18.4768 65.1197 18.9518 65.0369 19.6129C64.9563 20.2675 65.1563 21.0833 65.6371 22.0603Z" fill="white"/>
<path d="M85.9992 12.009C85.8968 11.5967 85.9429 11.2255 86.1376 10.8954C86.337 10.5641 86.6547 10.3443 87.0907 10.236C87.5219 10.1288 87.9049 10.172 88.2398 10.3656C88.5735 10.5543 88.7951 10.8691 88.9046 11.3098L88.9699 11.5728C89.0724 11.985 89.0257 12.3539 88.8298 12.6793C88.6339 13.0046 88.3133 13.2227 87.8678 13.3333C87.4271 13.4428 87.0417 13.4002 86.7116 13.2055C86.385 13.0049 86.1699 12.6961 86.0663 12.2791L85.9992 12.009Z" fill="white"/>
<path d="M110.107 8.82373L112.756 3.40221L114.353 3.36253L110.843 10.1389L110.942 14.1147L109.536 14.1496L109.437 10.1738L105.596 3.58022L107.206 3.54018L110.107 8.82373Z" fill="white"/>
<path d="M129.629 8.49414L128.495 8.35816L127.925 13.1142C127.888 13.4244 127.925 13.6674 128.037 13.8431C128.149 14.0139 128.363 14.1182 128.678 14.156C128.91 14.1839 129.125 14.1801 129.321 14.1446L129.197 15.2435C128.846 15.295 128.494 15.2995 128.14 15.2571C126.933 15.1124 126.415 14.3274 126.585 12.902L127.149 8.19691L124.233 7.84738L123.424 14.6032L122.078 14.442L122.888 7.68612L121.659 7.53881L121.792 6.42617L129.763 7.3815L129.629 8.49414Z" fill="white"/>
<path d="M136.811 14.6169C136.715 14.9804 136.809 15.3234 137.092 15.6458C137.381 15.9694 137.803 16.2049 138.36 16.3521C138.894 16.4932 139.376 16.4819 139.809 16.3183C140.245 16.156 140.514 15.8837 140.615 15.5013L141.925 15.8476C141.732 16.5793 141.275 17.0848 140.555 17.3641C139.84 17.6399 139.016 17.6543 138.081 17.4072C137.118 17.1526 136.399 16.7403 135.923 16.1701C135.449 15.5952 135.304 14.9608 135.487 14.2669C135.719 13.3889 136.36 12.922 137.411 12.8662C137.04 12.5865 136.777 12.272 136.622 11.9229C136.467 11.5738 136.435 11.227 136.526 10.8824C136.711 10.1837 137.126 9.71025 137.773 9.46194C138.424 9.21489 139.226 9.21739 140.18 9.46947C141.058 9.70158 141.733 10.1074 142.206 10.687C142.685 11.2631 142.836 11.8864 142.659 12.5567L141.349 12.2104C141.436 11.88 141.341 11.5518 141.064 11.2259C140.792 10.8966 140.404 10.6651 139.899 10.5316C139.37 10.3918 138.917 10.3881 138.538 10.5204C138.166 10.6492 137.933 10.8883 137.841 11.2376C137.641 11.9929 138.117 12.5228 139.269 12.8273L140.657 13.1942L140.38 14.2422L138.794 13.8229C137.682 13.5592 137.021 13.8239 136.811 14.6169Z" fill="white"/>
<path d="M152.768 13.713L150.933 18.0821C150.356 19.4551 150.52 20.3317 151.425 20.7117C152.006 20.9556 152.606 20.8766 153.225 20.4745C153.844 20.0725 154.325 19.4618 154.669 18.6425C155.084 17.5931 155.298 16.3063 155.313 14.7822L156.63 15.3352C156.683 16.6338 156.446 17.9111 155.919 19.1671C155.421 20.3511 154.731 21.1813 153.848 21.6577C152.971 22.1315 152.042 22.1623 151.06 21.7502C150.187 21.3834 149.631 20.8533 149.393 20.1601C149.154 19.4668 149.234 18.6343 149.631 17.6626L151.512 13.1855L152.768 13.713Z" fill="white"/>
<path d="M169.03 25.6145C168.229 26.9614 167.368 27.8442 166.449 28.2629C165.532 28.6774 164.605 28.6063 163.669 28.0495C162.751 27.5026 162.249 26.7324 162.164 25.7387C162.079 24.745 162.413 23.597 163.165 22.2946L163.933 21.0043C164.724 19.6741 165.576 18.806 166.488 18.3999C167.4 17.9938 168.324 18.0691 169.26 18.6259C170.192 19.1803 170.701 19.9434 170.787 20.9153C170.878 21.8897 170.548 23.026 169.798 24.3242L169.03 25.6145ZM165.007 21.8482L168.463 23.9045L168.669 23.5583C169.236 22.6058 169.522 21.7904 169.528 21.112C169.54 20.432 169.261 19.9222 168.691 19.5826C168.128 19.2481 167.549 19.2472 166.954 19.5802C166.36 19.9089 165.78 20.5496 165.213 21.5021L165.007 21.8482ZM167.893 24.8612L164.438 22.805L164.292 23.0504C163.72 24.0113 163.431 24.8452 163.426 25.552C163.42 26.2587 163.69 26.7744 164.235 27.099C164.781 27.4236 165.35 27.4216 165.943 27.0928C166.541 26.7666 167.127 26.1297 167.702 25.1822L167.893 24.8612Z" fill="white"/>
<path d="M178.604 28.412L175.64 32.1088C174.708 33.2706 174.625 34.1585 175.39 34.7725C175.882 35.1666 176.48 35.2554 177.186 35.0389C177.892 34.8224 178.522 34.3675 179.078 33.6743C179.765 32.7791 180.325 31.6008 180.758 30.1395L181.873 31.033C181.567 32.2963 180.988 33.4592 180.135 34.522C179.332 35.5238 178.44 36.1324 177.46 36.3478C176.487 36.5624 175.585 36.3368 174.755 35.6708C174.016 35.0782 173.627 34.4158 173.588 33.6837C173.549 32.9516 173.854 32.173 174.503 31.3479L177.542 27.5597L178.604 28.412Z" fill="white"/>
<path d="M186.157 43.3735L191.919 40.5994L192.873 41.6022L185.173 45.007L184.461 44.2589L188.223 36.7158L189.177 37.7186L186.157 43.3735Z" fill="white"/>
<path d="M194.599 49.6593C195.227 49.2041 195.882 48.9173 196.562 48.799C197.244 48.6847 197.881 48.7483 198.472 48.9898C199.065 49.2353 199.567 49.6409 199.976 50.2065C200.609 51.0807 200.817 52.0058 200.601 52.9818C200.388 53.9617 199.779 54.8152 198.775 55.5423L198.698 55.5982C198.073 56.0505 197.424 56.3363 196.751 56.4558C196.084 56.5763 195.451 56.5132 194.851 56.2666C194.253 56.024 193.745 55.6139 193.328 55.0364C192.698 54.1661 192.489 53.2411 192.702 52.2612C192.918 51.2852 193.525 50.4365 194.521 49.7151L194.599 49.6593ZM195.267 50.8574C194.555 51.3727 194.102 51.9505 193.908 52.5908C193.718 53.2351 193.823 53.8342 194.223 54.388C194.627 54.9457 195.165 55.2313 195.838 55.2447C196.515 55.2553 197.247 54.9757 198.034 54.406C198.738 53.8964 199.186 53.3161 199.378 52.665C199.576 52.0149 199.475 51.413 199.074 50.8592C198.682 50.3173 198.15 50.0362 197.479 50.016C196.807 49.9958 196.07 50.2762 195.267 50.8574ZM202.801 47.9633L203.548 48.9957L201.05 49.7545L200.569 49.09L202.801 47.9633Z" fill="white"/>
<path d="M208.17 66.0118L206.886 63.6172L202.607 65.9122C202.034 66.2191 201.869 66.5985 202.112 67.0503C202.211 67.2353 202.373 67.4033 202.598 67.5541L201.904 68.2752C201.505 68.0682 201.183 67.7366 200.939 67.2805C200.65 66.7426 200.595 66.2625 200.773 65.8402C200.957 65.4198 201.363 65.039 201.989 64.6978L206.242 62.4167L205.041 60.1769L206.009 59.6577L209.138 65.4926L208.17 66.0118Z" fill="white"/>
<path d="M212.768 73.6718L211.863 74.0964C212.782 74.3782 213.413 74.9764 213.755 75.891C214.08 76.7599 214.091 77.478 213.787 78.0453C213.488 78.6108 212.872 79.0705 211.941 79.4242L204.286 82.2889L203.811 81.0199L211.391 78.1833C212.013 77.9506 212.419 77.6577 212.61 77.3047C212.802 76.9516 212.788 76.4824 212.569 75.897C212.411 75.4763 212.176 75.155 211.864 74.933C211.556 74.7094 211.194 74.5865 210.78 74.5645L205.395 76.5796L204.917 75.3037L212.339 72.5262L212.768 73.6718Z" fill="white"/>
<path d="M217.308 92.8847L216.705 90.2353L211.97 91.3133C211.337 91.4575 211.077 91.7795 211.191 92.2794C211.237 92.4841 211.349 92.689 211.526 92.8941L210.666 93.4054C210.336 93.1 210.114 92.6949 209.999 92.1903C209.863 91.5951 209.937 91.1176 210.221 90.7575C210.51 90.4012 211.002 90.1415 211.696 89.9785L216.402 88.9069L215.838 86.4289L216.909 86.185L218.379 92.6408L217.308 92.8847Z" fill="white"/>
<path d="M220.165 106.552L214.351 107.075C213.671 107.145 213.348 107.371 213.382 107.75C213.391 107.842 213.41 107.924 213.441 107.995L212.457 108.252C212.271 108.034 212.161 107.745 212.129 107.385C212.065 106.67 212.425 106.184 213.211 105.927C212.362 105.479 211.892 104.746 211.8 103.73C211.716 102.796 211.992 102.021 212.628 101.405C213.269 100.789 214.182 100.427 215.369 100.32L215.478 100.311C216.762 100.195 217.813 100.378 218.631 100.858C219.454 101.338 219.908 102.055 219.994 103.008C220.082 103.995 219.759 104.784 219.022 105.375L220.062 105.406L220.165 106.552ZM215.447 101.674C214.596 101.75 213.948 101.988 213.503 102.386C213.063 102.783 212.873 103.31 212.932 103.967C213.008 104.808 213.516 105.387 214.456 105.705L217.709 105.412C218.587 104.916 218.988 104.26 218.915 103.443C218.856 102.791 218.533 102.308 217.946 101.993C217.364 101.683 216.531 101.576 215.447 101.674Z" fill="white"/>
<path d="M217.509 124.288C217.93 124.34 218.26 124.517 218.498 124.817C218.736 125.122 218.827 125.498 218.771 125.943C218.716 126.384 218.538 126.726 218.238 126.969C217.941 127.213 217.568 127.307 217.117 127.25L216.849 127.217C216.427 127.164 216.1 126.988 215.866 126.688C215.633 126.389 215.545 126.011 215.602 125.556C215.658 125.105 215.836 124.761 216.136 124.523C216.441 124.29 216.806 124.2 217.233 124.253L217.509 124.288Z" fill="white"/>
<path d="M208.552 149.565L210.053 145.357L207.769 143.476L208.256 142.111L216.932 149.53L216.518 150.689L205.103 150.947L205.588 149.588L208.552 149.565ZM211 146.146L209.782 149.56L215.09 149.526L211 146.146Z" fill="white"/>
<path d="M205.076 166.331L206.049 164.492C204.954 165.017 203.817 164.968 202.639 164.344L202.529 164.286C201.925 163.966 201.438 163.54 201.068 163.007C200.702 162.477 200.499 161.894 200.46 161.26C200.417 160.63 200.556 160.013 200.876 159.409C201.374 158.468 202.101 157.883 203.056 157.654C204.016 157.427 205.046 157.605 206.147 158.188L206.231 158.232C206.887 158.579 207.408 159.018 207.796 159.549C208.183 160.081 208.4 160.657 208.447 161.278C208.491 161.904 208.356 162.52 208.04 163.126L206.067 166.855L205.076 166.331ZM205.451 159.361C204.661 158.943 203.942 158.783 203.293 158.881C202.649 158.982 202.169 159.33 201.854 159.926C201.536 160.526 201.52 161.12 201.806 161.707C202.093 162.301 202.675 162.83 203.551 163.294C204.293 163.687 204.979 163.826 205.609 163.712C206.236 163.602 206.708 163.247 207.026 162.647C207.339 162.056 207.367 161.471 207.109 160.893C206.85 160.319 206.297 159.808 205.451 159.361Z" fill="white"/>
<path d="M193.49 171.365C194.323 170.426 195.241 169.905 196.245 169.803C197.25 169.707 198.246 170.024 199.232 170.751C199.892 171.239 200.386 171.798 200.715 172.429C201.045 173.067 201.197 173.762 201.171 174.513L199.947 174.53C199.864 173.491 199.356 172.597 198.423 171.847C197.743 171.346 197.047 171.105 196.334 171.125C195.623 171.152 194.975 171.454 194.391 172.03L198.61 175.145C199.023 175.449 199.251 175.827 199.294 176.278C199.341 176.732 199.201 177.181 198.874 177.624C198.497 178.135 198.006 178.507 197.402 178.742C196.8 178.982 196.161 179.051 195.485 178.946C194.809 178.842 194.179 178.574 193.594 178.142C192.639 177.437 192.079 176.584 191.915 175.582C191.754 174.583 192.011 173.541 192.685 172.455L189.969 170.449L190.773 169.359L193.49 171.365ZM193.586 173.12C193.18 173.852 193.052 174.571 193.204 175.278C193.356 175.985 193.754 176.576 194.398 177.052C195.077 177.522 195.748 177.751 196.413 177.738C197.075 177.729 197.595 177.47 197.972 176.959C198.163 176.7 198.098 176.451 197.776 176.213L193.586 173.12Z" fill="white"/>
<path d="M186.96 191.042L182.831 186.916C182.341 186.44 181.961 186.336 181.692 186.606C181.626 186.671 181.576 186.739 181.542 186.808L180.713 186.218C180.761 185.934 180.913 185.665 181.168 185.41C181.676 184.902 182.28 184.867 182.981 185.305C182.78 184.366 183.041 183.536 183.762 182.814C184.425 182.151 185.196 181.866 186.077 181.959C186.961 182.055 187.824 182.524 188.667 183.367L188.745 183.444C189.656 184.355 190.19 185.279 190.346 186.214C190.505 187.154 190.246 187.962 189.57 188.638C188.869 189.34 188.056 189.597 187.131 189.411L187.773 190.229L186.96 191.042ZM187.678 184.294C187.074 183.69 186.476 183.345 185.886 183.259C185.299 183.176 184.772 183.368 184.306 183.834C183.709 184.432 183.59 185.193 183.95 186.118L186.26 188.427C187.203 188.783 187.964 188.67 188.544 188.09C189.007 187.627 189.17 187.069 189.036 186.417C188.901 185.771 188.448 185.064 187.678 184.294ZM191.663 191.642L190.762 192.543L189.617 190.197L190.197 189.617L191.663 191.642Z" fill="white"/>
<path d="M181.741 199.782C181.359 200.07 180.992 200.225 180.641 200.245C180.289 200.266 179.909 200.14 179.501 199.867L172.111 195.268C171.883 195.128 171.697 195.051 171.553 195.038C171.407 195.032 171.266 195.08 171.13 195.183L170.921 195.368L170.215 194.506C170.32 194.353 170.454 194.215 170.618 194.092C170.918 193.865 171.171 193.73 171.376 193.685C171.583 193.644 171.811 193.662 172.058 193.739C172.306 193.815 172.604 193.966 172.952 194.193L176.913 196.645L175.148 190.829L176.352 189.92L178.589 197.674L180.187 198.624C180.442 198.774 180.655 198.855 180.828 198.865C180.997 198.878 181.169 198.819 181.345 198.686L181.611 198.467L182.243 199.293C182.115 199.463 181.947 199.626 181.741 199.782Z" fill="white"/>
<path d="M164.6 200.769C164.417 200.44 164.112 200.258 163.684 200.222C163.252 200.188 162.784 200.312 162.281 200.592C161.799 200.86 161.458 201.202 161.26 201.62C161.058 202.04 161.053 202.422 161.245 202.768L160.061 203.426C159.693 202.765 159.672 202.084 159.997 201.383C160.321 200.689 160.906 200.108 161.751 199.638C162.621 199.154 163.425 198.952 164.163 199.034C164.904 199.119 165.448 199.476 165.797 200.103C166.238 200.897 166.1 201.678 165.382 202.446C165.843 202.391 166.25 202.435 166.604 202.579C166.958 202.723 167.221 202.951 167.394 203.263C167.745 203.894 167.774 204.524 167.48 205.151C167.182 205.78 166.602 206.335 165.74 206.814C164.946 207.255 164.178 207.431 163.435 207.341C162.691 207.258 162.15 206.913 161.813 206.307L162.997 205.649C163.163 205.947 163.459 206.118 163.885 206.161C164.309 206.21 164.75 206.107 165.206 205.854C165.684 205.588 166.014 205.276 166.195 204.919C166.374 204.567 166.376 204.234 166.2 203.918C165.82 203.235 165.11 203.184 164.069 203.762L162.814 204.46L162.287 203.513L163.721 202.715C164.706 202.135 164.999 201.486 164.6 200.769Z" fill="white"/>
<path d="M153.492 212.554L151.25 207.069C151.134 206.785 150.985 206.595 150.804 206.5C150.618 206.407 150.38 206.42 150.091 206.538C149.874 206.627 149.689 206.734 149.535 206.861L149.109 205.84C149.391 205.625 149.696 205.45 150.026 205.315C151.152 204.855 151.986 205.289 152.529 206.618L154.747 212.041L153.492 212.554Z" fill="white"/>
<path d="M138.902 217.329L137.351 211.701C137.16 211.044 136.881 210.767 136.514 210.868C136.425 210.893 136.348 210.926 136.284 210.969L135.855 210.047C136.037 209.824 136.302 209.665 136.65 209.569C137.342 209.379 137.885 209.647 138.277 210.374C138.567 209.459 139.204 208.866 140.188 208.595C141.092 208.346 141.903 208.479 142.623 208.995C143.344 209.516 143.862 210.35 144.179 211.499L144.208 211.605C144.55 212.847 144.558 213.914 144.231 214.804C143.905 215.699 143.281 216.274 142.358 216.528C141.403 216.792 140.568 216.614 139.856 215.994L140.01 217.023L138.902 217.329ZM142.861 211.816C142.634 210.993 142.285 210.397 141.814 210.031C141.345 209.669 140.792 209.575 140.157 209.75C139.342 209.975 138.863 210.578 138.718 211.56L139.585 214.709C140.229 215.484 140.947 215.762 141.738 215.544C142.368 215.371 142.786 214.967 142.992 214.333C143.193 213.705 143.15 212.866 142.861 211.816Z" fill="white"/>
<path d="M120.976 217.875C120.999 218.299 120.885 218.655 120.631 218.943C120.374 219.231 120.02 219.387 119.572 219.412C119.128 219.437 118.76 219.322 118.467 219.07C118.175 218.822 118.016 218.471 117.991 218.018L117.976 217.747C117.953 217.323 118.068 216.969 118.321 216.686C118.574 216.403 118.93 216.249 119.389 216.224C119.842 216.199 120.213 216.313 120.5 216.566C120.784 216.824 120.937 217.168 120.961 217.597L120.976 217.875Z" fill="white"/>
</svg>
