<svg width="27" height="28" viewBox="0 0 27 28" fill="none" xmlns="http://www.w3.org/2000/svg">
<path d="M2.22694 13.9971C2.22824 19.4692 6.20741 24.1285 11.6119 24.9861V17.2118H8.78987V13.9971H11.6153V11.5499C11.489 10.3903 11.885 9.2346 12.6961 8.39626C13.5071 7.55792 14.6491 7.12381 15.8122 7.21168C16.6471 7.22516 17.4798 7.29951 18.3039 7.43415V10.1694H16.8979C16.4138 10.106 15.9272 10.2659 15.575 10.604C15.2229 10.9421 15.0433 11.4218 15.0869 11.9081V13.9971H18.1693L17.6765 17.2129H15.0869V24.9861C20.9318 24.0624 25.0304 18.7244 24.4135 12.8392C23.7966 6.95402 18.6802 2.58195 12.7708 2.89036C6.86144 3.19876 2.22788 8.07966 2.22694 13.9971Z" fill="white"/>
</svg>
