<svg width="27" height="28" viewBox="0 0 27 28" fill="none" xmlns="http://www.w3.org/2000/svg">
<path d="M14.764 24.0068H10.3146V10.6585H14.764V12.8833C15.7124 11.6766 17.1507 10.9573 18.6851 10.9222C21.4444 10.9375 23.6709 13.1829 23.6629 15.9422V24.0068H19.2134V16.4984C19.0355 15.2555 17.9696 14.3333 16.714 14.336C16.1648 14.3534 15.6464 14.5938 15.2784 15.0019C14.9104 15.4099 14.7247 15.9504 14.764 16.4984V24.0068ZM8.08985 24.0068H3.64041V10.6585H8.08985V24.0068ZM5.86513 8.43381C4.63645 8.43381 3.64041 7.43777 3.64041 6.20909C3.64041 4.98042 4.63645 3.98438 5.86513 3.98438C7.09381 3.98438 8.08985 4.98042 8.08985 6.20909C8.08985 6.79913 7.85546 7.36499 7.43824 7.78221C7.02103 8.19942 6.45516 8.43381 5.86513 8.43381Z" fill="white"/>
</svg>
